<?xml version="1.0" encoding="UTF-8"?><svg id="Layer_2" xmlns="http://www.w3.org/2000/svg" viewBox="0 0 603.41 417.09"><defs><style>.cls-1{fill:#f4f4f4;}.cls-2{letter-spacing:-.02em;}.cls-3{letter-spacing:0em;}.cls-4{fill:#d5131a;}.cls-5{fill:#db6f2d;}.cls-6{fill:#f5c832;}.cls-7{fill:#374e9c;}.cls-8{fill:#008247;}.cls-9{font-family:Avenir-Book, Avenir;font-size:30px;}.cls-9,.cls-10{fill:#1d1d1b;}.cls-11{letter-spacing:-.11em;}.cls-10{font-family:Avenir-Black, Avenir;font-size:60px;font-weight:800;}</style></defs><g id="Layer_1-2"><rect class="cls-1" x="268.41" y="258.02" width="334.52" height="71.06"/><rect class="cls-4" x="268.41" y="258.02" width="16.99" height="71.06"/><rect class="cls-1" x="268.41" y="345.37" width="334.52" height="71.06"/><rect class="cls-4" x="268.41" y="345.37" width="16.99" height="71.06"/><rect class="cls-1" x="268.41" y="82.02" width="335" height="71.06"/><rect class="cls-8" x="268.41" y="82.02" width="16.99" height="71.06"/><rect class="cls-1" x="268.41" y="170.02" width="335" height="71.06"/><rect class="cls-6" x="268.41" y="170.02" width="16.99" height="71.06"/><rect class="cls-1" y="258.02" width="250" height="159.06"/><rect class="cls-7" y="258.02" width="16.99" height="159.06"/><rect class="cls-1" y="82.02" width="250" height="159.06"/><rect class="cls-5" y="82.02" width="16.99" height="159.06"/><text class="cls-10" transform="translate(0 51.24)"><tspan x="0" y="0">Redaqtion</tspan></text><text class="cls-9" transform="translate(33.55 297.81)"><tspan x="0" y="0">Illustrators</tspan></text><text class="cls-9" transform="translate(33.55 391.68)"><tspan x="0" y="0">Layouters</tspan></text><text class="cls-9" transform="translate(298.08 393.86)"><tspan class="cls-2" x="0" y="0">W</tspan><tspan x="27.78" y="0">eb Reporters</tspan></text><text class="cls-9" transform="translate(33.55 130.52)"><tspan class="cls-2" x="0" y="0">W</tspan><tspan class="cls-3" x="27.78" y="0">riters</tspan></text><text class="cls-9" transform="translate(298.08 130.52)"><tspan x="0" y="0">Marketing </tspan><tspan class="cls-11" x="143.88" y="0">T</tspan><tspan x="157.77" y="0">eam</tspan></text><text class="cls-9" transform="translate(33.55 344.75)"><tspan x="0" y="0">Photographers</tspan></text><text class="cls-9" transform="translate(298.08 303.68)"><tspan class="cls-2" x="0" y="0">W</tspan><tspan x="27.78" y="0">eb Developers</tspan></text><text class="cls-9" transform="translate(298.08 215.68)"><tspan x="0" y="0">Advertising </tspan><tspan class="cls-11" x="160.5" y="0">T</tspan><tspan x="174.39" y="0">eam</tspan></text></g></svg>