<?xml version="1.0" encoding="UTF-8"?><svg id="Layer_2" xmlns="http://www.w3.org/2000/svg" viewBox="0 0 603.43 329.95"><defs><style>.cls-1{fill:#f4f4f4;}.cls-2{letter-spacing:-.02em;}.cls-3{letter-spacing:-.11em;}.cls-4{fill:#d5131a;}.cls-5{letter-spacing:-.02em;}.cls-6{fill:#db6f2d;}.cls-7{fill:#f5c832;}.cls-8{fill:#374e9c;}.cls-9{fill:#008247;}.cls-10{letter-spacing:0em;}.cls-11{font-family:Avenir-Book, Avenir;font-size:30px;}.cls-11,.cls-12{fill:#1d1d1b;}.cls-12{font-family:Avenir-Black, Avenir;font-size:60px;font-weight:800;}</style></defs><g id="Layer_1-2"><rect class="cls-1" x="268.41" y="258.88" width="334.04" height="71.06"/><rect class="cls-4" x="268.41" y="258.88" width="16.99" height="71.06"/><rect class="cls-1" x="268.41" y="82.88" width="335.02" height="71.06"/><rect class="cls-9" x="268.41" y="82.88" width="16.99" height="71.06"/><rect class="cls-1" x="268.41" y="170.88" width="335" height="71.06"/><rect class="cls-7" x="268.41" y="170.88" width="16.99" height="71.06"/><rect class="cls-1" x="0" y="258.88" width="250" height="71.06"/><rect class="cls-8" x="0" y="258.88" width="16.99" height="71.06"/><rect class="cls-1" x="0" y="82.88" width="250" height="161.36"/><rect class="cls-6" x="0" y="82.88" width="16.99" height="161.36"/><text class="cls-12" transform="translate(0 51.24)"><tspan x="0" y="0">Osqledningen</tspan></text><text class="cls-11" transform="translate(33.55 304.48)"><tspan x="0" y="0">Art Di</tspan><tspan class="cls-5" x="78.27" y="0">r</tspan><tspan x="87.69" y="0">ector</tspan></text><text class="cls-11" transform="translate(298.08 128.48)"><tspan x="0" y="0">Marketing Manager</tspan></text><text class="cls-11" transform="translate(298.08 214.19)"><tspan x="0" y="0">Advertising Manager</tspan></text><text class="cls-11" transform="translate(33.55 128.48)"><tspan class="cls-3" x="0" y="0">T</tspan><tspan class="cls-10" x="13.89" y="0">ext Editors</tspan></text><text class="cls-11" transform="translate(298.08 304.48)"><tspan class="cls-2" x="0" y="0">W</tspan><tspan x="27.78" y="0">eb Editor</tspan></text></g></svg>